<?xml version="1.0" encoding="utf-8"?>
<!-- Generator: Adobe Illustrator 27.6.1, SVG Export Plug-In . SVG Version: 6.00 Build 0)  -->
<svg version="1.1" id="Layer_1" xmlns="http://www.w3.org/2000/svg" xmlns:xlink="http://www.w3.org/1999/xlink" x="0px" y="0px"
	 viewBox="0 0 279.5 53.8" style="enable-background:new 0 0 279.5 53.8;" xml:space="preserve">
<style type="text/css">
	.st0{fill-rule:evenodd;clip-rule:evenodd;fill:#00ACD7;}
	.st1{fill-rule:evenodd;clip-rule:evenodd;fill:#FF4475;}
	.st2{fill-rule:evenodd;clip-rule:evenodd;fill:#0058DC;}
</style>
<g>
	<g>
		<g>
			<path d="M90,11v31.7h-5.6V11H90z"/>
			<path d="M100.6,42.7h-5.3V21.3h4.9l0.4,2.8c0.7-1.1,1.6-1.9,2.8-2.5c1.2-0.6,2.6-0.9,4-0.9c2.7,0,4.7,0.8,6.1,2.4
				c1.4,1.6,2.1,3.8,2.1,6.5v13.2h-5.3V30.8c0-1.8-0.4-3.1-1.2-4c-0.8-0.9-1.9-1.3-3.3-1.3c-1.6,0-2.9,0.5-3.9,1.6
				c-0.9,1-1.4,2.4-1.4,4.2V42.7z"/>
			<path d="M125.3,42.7H120V21.3h4.9l0.4,2.8c0.7-1.1,1.6-1.9,2.8-2.5c1.2-0.6,2.6-0.9,4-0.9c2.7,0,4.7,0.8,6.1,2.4s2.1,3.8,2.1,6.5
				v13.2h-5.3V30.8c0-1.8-0.4-3.1-1.2-4c-0.8-0.9-1.9-1.3-3.3-1.3c-1.6,0-2.9,0.5-3.9,1.6c-0.9,1-1.4,2.4-1.4,4.2V42.7z"/>
			<path d="M143.4,32c0-2.2,0.5-4.2,1.5-5.9c1-1.7,2.3-3,4.1-4c1.7-1,3.7-1.4,5.9-1.4c2.2,0,4.2,0.5,5.9,1.4c1.7,1,3.1,2.3,4.1,4
				c1,1.7,1.5,3.7,1.5,5.9c0,2.2-0.5,4.2-1.5,5.9c-1,1.7-2.3,3-4.1,4c-1.7,1-3.7,1.4-5.9,1.4c-2.2,0-4.2-0.5-5.9-1.4s-3.1-2.3-4.1-4
				C143.9,36.1,143.4,34.2,143.4,32z M148.7,32c0,1.3,0.3,2.4,0.8,3.4c0.5,1,1.3,1.7,2.2,2.3c0.9,0.5,2,0.8,3.2,0.8
				c1.2,0,2.3-0.3,3.2-0.8c0.9-0.5,1.6-1.3,2.2-2.3c0.5-1,0.8-2.1,0.8-3.4c0-1.3-0.3-2.5-0.8-3.4c-0.5-1-1.2-1.7-2.2-2.3
				c-0.9-0.5-2-0.8-3.2-0.8c-1.2,0-2.3,0.3-3.2,0.8c-0.9,0.5-1.6,1.3-2.2,2.3C149,29.5,148.7,30.6,148.7,32z"/>
			<path d="M175.7,42.7l-8.5-21.4h5.6l3.7,9.8c0.5,1.3,0.9,2.4,1.2,3.5c0.3,1.1,0.6,1.9,0.7,2.4c0.1-0.7,0.4-1.5,0.8-2.6
				c0.4-1.1,0.8-2.2,1.2-3.4l3.9-9.8h5.5l-8.9,21.4H175.7z"/>
			<path d="M198.4,43.3c-2.3,0-4-0.6-5.4-1.8s-2-2.8-2-4.8c0-2,0.7-3.5,2.1-4.7s3.3-1.9,5.9-2.1l6.4-0.5v-0.5c0-1-0.2-1.8-0.5-2.4
				c-0.4-0.6-0.9-1-1.5-1.3c-0.7-0.3-1.4-0.4-2.3-0.4c-1.6,0-2.8,0.3-3.6,0.9c-0.8,0.6-1.3,1.5-1.3,2.6h-4.5c0-1.6,0.4-2.9,1.2-4.1
				c0.8-1.1,1.9-2,3.4-2.7c1.5-0.6,3.1-1,5.1-1c1.9,0,3.6,0.3,5,1c1.4,0.7,2.5,1.7,3.2,3c0.8,1.3,1.1,3,1.1,5v13H206l-0.4-3.2
				c-0.5,1.1-1.4,2-2.7,2.7C201.6,42.9,200.1,43.3,198.4,43.3z M200.1,39.3c1.6,0,3-0.5,3.9-1.4c1-0.9,1.5-2.2,1.5-3.9v-1.1
				l-4.5,0.3c-1.6,0.1-2.8,0.5-3.5,1c-0.7,0.5-1,1.2-1,2.1c0,1,0.3,1.7,1,2.2C198.1,39,199,39.3,200.1,39.3z"/>
			<path d="M212.8,21.3h13.5v4.4h-13.5V21.3z M222.2,42.7h-5.3V14.6h5.3V42.7z"/>
			<path d="M231.4,17c-0.9,0-1.7-0.3-2.3-0.9c-0.6-0.6-0.9-1.4-0.9-2.3c0-0.9,0.3-1.6,0.9-2.3c0.6-0.6,1.4-0.9,2.3-0.9
				c0.9,0,1.7,0.3,2.3,0.9c0.6,0.6,0.9,1.4,0.9,2.3c0,0.9-0.3,1.7-0.9,2.3C233.1,16.7,232.3,17,231.4,17z M228.8,42.7V21.3h5.3v21.4
				H228.8z"/>
			<path d="M237.4,32c0-2.2,0.5-4.1,1.4-5.9c0.9-1.7,2.2-3,3.8-4c1.6-1,3.5-1.5,5.6-1.5c2.9,0,5.3,0.8,7.2,2.3
				c1.9,1.5,2.9,3.6,3.2,6.1h-5.3c-0.3-1.2-0.9-2.1-1.8-2.8c-0.9-0.6-1.9-0.9-3.2-0.9c-1.1,0-2.1,0.3-2.9,0.8
				c-0.9,0.5-1.5,1.3-2,2.3c-0.5,1-0.7,2.2-0.7,3.5c0,1.4,0.2,2.5,0.7,3.5s1.1,1.7,1.9,2.3c0.8,0.5,1.8,0.8,2.9,0.8
				c1.3,0,2.4-0.3,3.3-1c0.9-0.6,1.5-1.5,1.8-2.7h5.3c-0.2,1.7-0.8,3.1-1.8,4.4c-0.9,1.3-2.1,2.2-3.6,2.9c-1.5,0.7-3.2,1.1-5,1.1
				c-2.2,0-4.1-0.5-5.7-1.4c-1.6-0.9-2.9-2.3-3.8-3.9C237.9,36.2,237.4,34.2,237.4,32z"/>
			<path d="M268.1,43.3c-2.3,0-4-0.6-5.4-1.8c-1.3-1.2-2-2.8-2-4.8c0-2,0.7-3.5,2.1-4.7c1.4-1.2,3.3-1.9,5.9-2.1l6.4-0.5v-0.5
				c0-1-0.2-1.8-0.5-2.4c-0.4-0.6-0.9-1-1.5-1.3c-0.7-0.3-1.4-0.4-2.3-0.4c-1.6,0-2.8,0.3-3.6,0.9c-0.8,0.6-1.3,1.5-1.3,2.6h-4.5
				c0-1.6,0.4-2.9,1.2-4.1c0.8-1.1,1.9-2,3.4-2.7c1.5-0.6,3.1-1,5.1-1c1.9,0,3.6,0.3,5,1c1.4,0.7,2.5,1.7,3.2,3c0.8,1.3,1.1,3,1.1,5
				v13h-4.6l-0.4-3.2c-0.5,1.1-1.4,2-2.7,2.7C271.2,42.9,269.7,43.3,268.1,43.3z M269.7,39.3c1.6,0,3-0.5,3.9-1.4
				c1-0.9,1.5-2.2,1.5-3.9v-1.1l-4.5,0.3c-1.6,0.1-2.8,0.5-3.5,1c-0.7,0.5-1,1.2-1,2.1c0,1,0.3,1.7,1,2.2
				C267.7,39,268.6,39.3,269.7,39.3z"/>
		</g>
	</g>
	<circle class="st0" cx="32.2" cy="9.2" r="9.2"/>
	<path class="st1" d="M14.2,18.4c9.5,0,17.3,7.7,17.3,17.3v14.2h-8.6V35.7c0-1-0.2-2-0.5-2.9L9.7,45.4l-6.1-6.1l12.2-12.2
		C15.3,27,14.7,27,14.2,27H0v-8.6H14.2z"/>
	<path class="st2" d="M50.2,18.4c-9.5,0-17.3,7.7-17.3,17.3v14.2h8.6V35.7c0-0.8,0.1-1.6,0.3-2.3L55,46.6l6.1-6.1L47.9,27.3
		c0.7-0.2,1.5-0.3,2.3-0.3h14.2v-8.6H50.2z"/>
</g>
</svg>
